<svg width="94" height="22" viewBox="0 0 94 22" fill="none" xmlns="http://www.w3.org/2000/svg">
<path d="M19.51 7.58604L14.0551 6.79327L11.6166 1.84971C11.55 1.71436 11.4405 1.60479 11.3051 1.53819C10.9656 1.37061 10.5531 1.51026 10.3834 1.84971L7.94495 6.79327L2.49006 7.58604C2.33967 7.60753 2.20217 7.67843 2.0969 7.78585C1.96963 7.91666 1.8995 8.09265 1.90192 8.27514C1.90433 8.45763 1.9791 8.6317 2.10979 8.75909L6.05647 12.6069L5.12405 18.0403C5.10218 18.1667 5.11617 18.2967 5.16442 18.4156C5.21267 18.5344 5.29326 18.6374 5.39705 18.7127C5.50083 18.7881 5.62366 18.8329 5.75161 18.842C5.87955 18.8512 6.00749 18.8243 6.12092 18.7644L11 16.1991L15.8791 18.7644C16.0123 18.8353 16.167 18.8589 16.3153 18.8331C16.6891 18.7687 16.9405 18.4142 16.876 18.0403L15.9436 12.6069L19.8903 8.75909C19.9977 8.65382 20.0686 8.51632 20.0901 8.36593C20.1481 7.98995 19.886 7.6419 19.51 7.58604Z" fill="#FFC700"/>
<path d="M37.51 7.58604L32.0551 6.79327L29.6166 1.84971C29.55 1.71436 29.4405 1.60479 29.3051 1.53819C28.9656 1.37061 28.5531 1.51026 28.3834 1.84971L25.9449 6.79327L20.4901 7.58604C20.3397 7.60753 20.2022 7.67843 20.0969 7.78585C19.9696 7.91666 19.8995 8.09265 19.9019 8.27514C19.9043 8.45763 19.9791 8.6317 20.1098 8.75909L24.0565 12.6069L23.124 18.0403C23.1022 18.1667 23.1162 18.2967 23.1644 18.4156C23.2127 18.5344 23.2933 18.6374 23.397 18.7127C23.5008 18.7881 23.6237 18.8329 23.7516 18.842C23.8796 18.8512 24.0075 18.8243 24.1209 18.7644L29 16.1991L33.8791 18.7644C34.0123 18.8353 34.167 18.8589 34.3153 18.8331C34.6891 18.7687 34.9405 18.4142 34.876 18.0403L33.9436 12.6069L37.8903 8.75909C37.9977 8.65382 38.0686 8.51632 38.0901 8.36593C38.1481 7.98995 37.886 7.6419 37.51 7.58604Z" fill="#FFC700"/>
<path d="M55.51 7.58604L50.0551 6.79327L47.6166 1.84971C47.55 1.71436 47.4405 1.60479 47.3051 1.53819C46.9656 1.37061 46.5531 1.51026 46.3834 1.84971L43.9449 6.79327L38.4901 7.58604C38.3397 7.60753 38.2022 7.67843 38.0969 7.78585C37.9696 7.91666 37.8995 8.09265 37.9019 8.27514C37.9043 8.45763 37.9791 8.6317 38.1098 8.75909L42.0565 12.6069L41.124 18.0403C41.1022 18.1667 41.1162 18.2967 41.1644 18.4156C41.2127 18.5344 41.2933 18.6374 41.397 18.7127C41.5008 18.7881 41.6237 18.8329 41.7516 18.842C41.8796 18.8512 42.0075 18.8243 42.1209 18.7644L47 16.1991L51.8791 18.7644C52.0123 18.8353 52.167 18.8589 52.3153 18.8331C52.6891 18.7687 52.9405 18.4142 52.876 18.0403L51.9436 12.6069L55.8903 8.75909C55.9977 8.65382 56.0686 8.51632 56.0901 8.36593C56.1481 7.98995 55.886 7.6419 55.51 7.58604Z" fill="#FFC700"/>
<path d="M73.51 7.58604L68.0551 6.79327L65.6166 1.84971C65.55 1.71436 65.4405 1.60479 65.3051 1.53819C64.9656 1.37061 64.5531 1.51026 64.3834 1.84971L61.9449 6.79327L56.4901 7.58604C56.3397 7.60753 56.2022 7.67843 56.0969 7.78585C55.9696 7.91666 55.8995 8.09265 55.9019 8.27514C55.9043 8.45763 55.9791 8.6317 56.1098 8.75909L60.0565 12.6069L59.124 18.0403C59.1022 18.1667 59.1162 18.2967 59.1644 18.4156C59.2127 18.5344 59.2933 18.6374 59.397 18.7127C59.5008 18.7881 59.6237 18.8329 59.7516 18.842C59.8796 18.8512 60.0075 18.8243 60.1209 18.7644L65 16.1991L69.8791 18.7644C70.0123 18.8353 70.167 18.8589 70.3153 18.8331C70.6891 18.7687 70.9405 18.4142 70.876 18.0403L69.9436 12.6069L73.8903 8.75909C73.9977 8.65382 74.0686 8.51632 74.0901 8.36593C74.1481 7.98995 73.886 7.6419 73.51 7.58604Z" fill="#FFC700"/>
<path d="M91.51 7.58604L86.0551 6.79327L83.6166 1.84971C83.55 1.71436 83.4405 1.60479 83.3051 1.53819C82.9656 1.37061 82.5531 1.51026 82.3834 1.84971L79.9449 6.79327L74.4901 7.58604C74.3397 7.60753 74.2022 7.67843 74.0969 7.78585C73.9696 7.91666 73.8995 8.09265 73.9019 8.27514C73.9043 8.45763 73.9791 8.6317 74.1098 8.75909L78.0565 12.6069L77.124 18.0403C77.1022 18.1667 77.1162 18.2967 77.1644 18.4156C77.2127 18.5344 77.2933 18.6374 77.397 18.7127C77.5008 18.7881 77.6237 18.8329 77.7516 18.842C77.8796 18.8512 78.0075 18.8243 78.1209 18.7644L83 16.1991L87.8791 18.7644C88.0123 18.8353 88.167 18.8589 88.3153 18.8331C88.6891 18.7687 88.9405 18.4142 88.876 18.0403L87.9436 12.6069L91.8903 8.75909C91.9977 8.65382 92.0686 8.51632 92.0901 8.36593C92.1481 7.98995 91.886 7.6419 91.51 7.58604Z" fill="#FFC700"/>
</svg>
