<svg width="14" height="14" viewBox="0 0 14 14" fill="none" xmlns="http://www.w3.org/2000/svg">
<path fill-rule="evenodd" clip-rule="evenodd" d="M0.875 7C0.875 6.88397 0.921094 6.77268 1.00314 6.69064C1.08519 6.60859 1.19647 6.5625 1.3125 6.5625L11.6314 6.5625L8.87775 3.80975C8.7956 3.7276 8.74945 3.61618 8.74945 3.5C8.74945 3.38382 8.7956 3.2724 8.87775 3.19025C8.9599 3.1081 9.07132 3.06194 9.1875 3.06194C9.30368 3.06194 9.4151 3.1081 9.49725 3.19025L12.9972 6.69025C13.038 6.73089 13.0703 6.77917 13.0924 6.83232C13.1144 6.88547 13.1258 6.94245 13.1258 7C13.1258 7.05754 13.1144 7.11452 13.0924 7.16768C13.0703 7.22083 13.038 7.26911 12.9972 7.30975L9.49725 10.8097C9.4151 10.8919 9.30368 10.938 9.1875 10.938C9.07132 10.938 8.9599 10.8919 8.87775 10.8097C8.7956 10.7276 8.74945 10.6162 8.74945 10.5C8.74945 10.3838 8.7956 10.2724 8.87775 10.1902L11.6314 7.4375H1.3125C1.19647 7.4375 1.08519 7.3914 1.00314 7.30936C0.921094 7.22731 0.875 7.11603 0.875 7Z" fill="#222222"/>
</svg>
