<svg width="16" height="30" viewBox="0 0 16 30" fill="none" xmlns="http://www.w3.org/2000/svg">
<path d="M3.18744 29.5833C3.49868 29.5844 3.8062 29.5157 4.08741 29.3823C4.36862 29.2489 4.61636 29.0542 4.81244 28.8125L14.8749 16.3125C15.1814 15.9397 15.3489 15.4721 15.3489 14.9896C15.3489 14.507 15.1814 14.0394 14.8749 13.6667L4.45828 1.16667C4.10466 0.74122 3.59651 0.473669 3.04562 0.422878C2.49473 0.372087 1.94623 0.542216 1.52078 0.895838C1.09533 1.24946 0.827776 1.75761 0.776985 2.3085C0.726194 2.85939 0.896322 3.40789 1.24994 3.83334L10.5624 15L1.56245 26.1667C1.30769 26.4725 1.14586 26.8448 1.09611 27.2397C1.04636 27.6346 1.11077 28.0355 1.28172 28.395C1.45267 28.7544 1.72301 29.0573 2.06074 29.2679C2.39847 29.4785 2.78946 29.588 3.18744 29.5833Z" fill="white"/>
</svg>
