<svg width="16" height="30" viewBox="0 0 16 30" fill="none" xmlns="http://www.w3.org/2000/svg">
<path d="M12.8126 29.5833C12.5013 29.5844 12.1938 29.5157 11.9126 29.3823C11.6314 29.2489 11.3836 29.0542 11.1876 28.8125L1.12506 16.3125C0.818636 15.9397 0.651123 15.4721 0.651123 14.9896C0.651123 14.507 0.818636 14.0394 1.12506 13.6667L11.5417 1.16667C11.8953 0.74122 12.4035 0.473669 12.9544 0.422878C13.5053 0.372087 14.0538 0.542216 14.4792 0.895838C14.9047 1.24946 15.1722 1.75761 15.223 2.3085C15.2738 2.85939 15.1037 3.40789 14.7501 3.83334L5.43756 15L14.4376 26.1667C14.6923 26.4725 14.8541 26.8448 14.9039 27.2397C14.9536 27.6346 14.8892 28.0355 14.7183 28.395C14.5473 28.7544 14.277 29.0573 13.9393 29.2679C13.6015 29.4785 13.2105 29.588 12.8126 29.5833Z" fill="white"/>
</svg>
